<?xml version="1.0" standalone="no"?>
<!DOCTYPE svg PUBLIC "-//W3C//DTD SVG 20010904//EN"
 "http://www.w3.org/TR/2001/REC-SVG-20010904/DTD/svg10.dtd">
<svg version="1.0" xmlns="http://www.w3.org/2000/svg"
 width="349.000000pt" height="355.000000pt" viewBox="0 0 349.000000 355.000000"
 preserveAspectRatio="xMidYMid meet">

<g transform="translate(0.000000,355.000000) scale(0.100000,-0.100000)"
fill="#000000" stroke="none">
<path d="M1502 3525 c-178 -27 -342 -80 -517 -166 -122 -60 -158 -81 -212
-125 -23 -19 -44 -34 -48 -34 -14 0 -162 -130 -227 -199 -244 -262 -398 -570
-463 -926 -26 -144 -31 -377 -11 -528 46 -338 177 -641 391 -902 31 -38 65
-73 76 -77 10 -4 19 -14 19 -21 0 -21 106 -117 129 -117 13 0 21 -7 21 -17 0
-10 22 -34 48 -53 26 -19 49 -37 52 -41 15 -17 169 -104 251 -143 161 -74 284
-114 437 -140 69 -13 72 -12 72 6 0 11 5 18 13 15 6 -2 11 -11 11 -20 -2 -18
69 -34 104 -23 20 7 38 46 21 46 -56 0 -228 27 -324 51 -66 17 -127 31 -135
31 -8 1 -17 4 -20 8 -3 3 -30 16 -60 29 -378 157 -677 428 -865 785 -30 55
-66 132 -80 171 -15 38 -29 74 -33 79 -3 6 -7 17 -8 26 0 8 -9 42 -19 74 -9
32 -27 113 -39 180 -30 162 -28 425 4 591 55 282 171 538 344 764 59 77 223
238 291 287 30 21 55 45 55 52 0 6 7 12 15 12 9 0 55 24 104 53 49 30 119 67
155 83 36 15 66 35 66 42 0 8 7 11 18 8 10 -4 52 6 93 20 187 65 434 94 642
76 355 -30 653 -154 939 -389 43 -35 80 -63 83 -63 3 0 5 7 5 15 0 8 5 15 10
15 6 0 8 -11 4 -25 -5 -21 3 -35 48 -84 80 -86 189 -234 237 -323 44 -80 61
-101 61 -74 0 10 6 13 16 9 14 -5 14 -2 0 30 -24 58 -130 221 -197 304 -70 85
-170 187 -244 249 -84 70 -268 189 -273 176 -2 -7 -8 -12 -13 -12 -4 0 -6 6
-3 14 4 10 -16 24 -62 46 -151 71 -250 104 -419 140 -132 28 -427 36 -563 15z
m156 -3487 c-7 -19 -38 -22 -38 -4 0 10 9 16 21 16 12 0 19 -5 17 -12z"/>
<path d="M1610 3369 c-213 -26 -374 -71 -535 -149 -352 -170 -625 -459 -776
-823 -17 -42 -30 -79 -28 -82 7 -6 115 20 179 43 30 11 114 28 185 37 72 9
147 18 167 22 55 8 86 -3 108 -39 19 -31 19 -31 24 -7 16 73 46 292 46 336 0
34 6 58 18 74 19 22 19 22 125 9 87 -10 143 -10 319 0 117 8 304 14 416 14
l203 1 38 -40 c31 -33 46 -66 80 -170 24 -72 56 -154 73 -182 l29 -53 31 16
c49 25 106 14 178 -36 105 -71 155 -86 360 -105 151 -14 297 -52 393 -101 l30
-16 -8 38 c-26 139 -131 377 -236 533 -108 160 -299 344 -464 448 -90 57 -229
121 -337 157 -190 63 -455 95 -618 75z"/>
<path d="M1790 2669 c-202 -26 -329 -40 -443 -48 -171 -13 -217 -41 -217 -131
0 -38 -44 -204 -70 -264 -23 -55 -60 -103 -99 -128 -71 -48 -159 5 -212 128
-19 45 -20 46 -57 40 -20 -3 -93 -10 -162 -15 -69 -5 -147 -16 -175 -25 -27
-9 -67 -16 -87 -16 l-37 0 -15 -72 c-31 -147 -36 -195 -36 -363 0 -201 21
-340 76 -504 140 -420 429 -752 819 -941 532 -259 1170 -185 1636 188 294 235
492 564 569 944 24 114 37 346 26 449 l-7 66 -78 6 c-54 4 -113 19 -191 47
-126 45 -164 49 -335 36 l-110 -8 -71 35 -71 35 -54 -31 c-47 -27 -63 -31
-132 -32 -76 0 -80 1 -107 31 -50 57 -79 167 -105 394 -10 87 -25 131 -55 162
-31 31 -68 34 -200 17z m-210 -220 c0 -6 -22 -50 -49 -98 -55 -98 -141 -265
-141 -275 0 -3 9 -6 19 -6 14 0 36 31 84 123 48 90 70 123 86 125 12 2 21 0
21 -3 0 -4 -27 -55 -60 -114 -33 -59 -60 -111 -60 -114 0 -4 9 -7 20 -7 12 0
26 12 36 33 37 72 70 59 39 -16 -5 -12 -3 -16 6 -13 61 21 464 45 503 30 24
-9 20 -43 -6 -49 -85 -18 -158 -25 -272 -26 -72 -1 -142 -4 -155 -8 -30 -8
-126 -176 -243 -426 -44 -93 -100 -212 -124 -263 -24 -51 -44 -95 -44 -97 0
-2 10 -5 23 -7 19 -3 22 -10 25 -50 l3 -48 -50 0 -51 0 -75 -154 c-41 -85 -82
-157 -91 -160 -19 -7 -28 16 -21 54 5 23 90 213 114 253 2 4 -3 7 -12 7 -10 0
-29 -28 -52 -75 -19 -41 -40 -75 -45 -75 -20 0 -18 31 6 83 14 29 26 57 26 60
0 4 -150 7 -334 7 l-335 0 -3 23 c-2 12 -1 34 1 49 l3 28 362 2 361 3 140 280
c77 154 164 325 193 381 28 55 52 103 52 107 0 4 -8 7 -19 7 -23 0 -32 -14
-108 -175 -72 -152 -165 -348 -234 -492 -30 -62 -56 -103 -64 -103 -21 0 -19
34 5 78 70 134 330 675 326 679 -17 17 -47 -32 -162 -266 -115 -236 -154 -297
-154 -243 0 10 53 126 119 257 65 132 118 241 117 242 -1 1 -60 -4 -131 -12
-173 -20 -211 -19 -219 2 -11 27 6 34 105 44 52 5 136 15 188 22 l94 12 50 95
c140 267 159 300 173 300 7 0 14 -5 14 -11z m324 -590 c28 -22 36 -75 14 -97
-9 -9 -9 -12 0 -12 16 0 45 29 68 69 19 32 44 42 44 17 0 -8 -9 -33 -19 -57
-11 -24 -18 -46 -15 -48 2 -3 32 22 65 55 47 46 62 56 69 45 5 -10 3 -25 -6
-42 -15 -31 -19 -69 -6 -69 21 0 40 29 45 68 3 24 8 46 10 49 11 10 27 -9 27
-33 0 -36 27 -31 84 16 53 44 76 50 76 21 0 -11 -52 -132 -116 -268 -165 -355
-157 -340 -181 -308 -17 25 -16 28 98 258 55 109 99 200 99 202 0 6 -72 -21
-110 -40 -38 -20 -76 -13 -85 14 -6 19 -7 19 -41 -1 -29 -17 -39 -18 -62 -9
-22 9 -36 8 -67 -5 -22 -9 -69 -19 -105 -23 l-65 -6 -32 -60 c-18 -33 -47 -99
-65 -147 -34 -90 -44 -103 -69 -87 -16 9 4 73 71 232 21 48 35 87 31 87 -3 -1
-17 -7 -31 -15 -59 -34 -130 -9 -130 45 0 36 57 119 97 143 41 23 73 10 73
-31 0 -40 -25 -70 -70 -83 -22 -7 -40 -16 -40 -21 0 -14 23 -9 87 19 54 25 64
34 84 76 24 50 55 66 47 23 -5 -22 -3 -22 39 10 25 19 48 34 52 34 5 0 20 -9
35 -21z m-507 -681 c-4 -9 -6 -7 -6 5 -1 9 -5 17 -10 17 -5 0 -12 -8 -14 -17
-3 -10 -5 -3 -6 15 l-1 33 21 -20 c12 -11 19 -25 16 -33z m37 21 c-3 -5 -10
-7 -15 -3 -5 3 -7 10 -3 15 3 5 10 7 15 3 5 -3 7 -10 3 -15z m31 11 c3 -5 1
-10 -4 -10 -6 0 -11 5 -11 10 0 6 2 10 4 10 3 0 8 -4 11 -10z m245 -6 c0 -8
-5 -12 -10 -9 -6 4 -8 11 -5 16 9 14 15 11 15 -7z m320 6 c0 -5 -5 -10 -11
-10 -5 0 -7 5 -4 10 3 6 8 10 11 10 2 0 4 -4 4 -10z m-510 -18 c0 -9 -9 -23
-20 -30 -18 -11 -20 -10 -20 18 0 23 4 30 20 30 12 0 20 -7 20 -18z m37 -2 c1
-11 -2 -20 -5 -20 -4 0 -8 9 -9 20 -1 11 2 20 5 20 4 0 8 -9 9 -20z m253 -1
c0 -10 -6 -19 -14 -19 -8 0 -17 -6 -19 -12 -3 -7 -6 -3 -6 10 -1 22 -31 33
-31 10 0 -9 -3 -9 -11 -1 -18 18 -2 31 41 31 33 1 40 -3 40 -19z m30 -9 c5 0
11 6 13 13 3 7 6 4 6 -6 1 -23 -33 -19 -35 3 0 9 1 10 3 3 3 -7 8 -13 13 -13z
m63 2 c-6 -23 -23 -21 -23 4 0 8 5 12 10 9 6 -3 10 -1 10 6 0 7 2 10 5 8 2 -3
2 -15 -2 -27z m70 13 c4 -8 2 -17 -3 -20 -6 -4 -10 -4 -10 -1 0 2 -3 11 -6 20
-3 9 -2 16 4 16 5 0 12 -7 15 -15z m24 -17 c-3 -7 -5 -2 -5 12 0 14 2 19 5 13
2 -7 2 -19 0 -25z m78 22 c3 -5 1 -10 -5 -10 -6 0 -8 -4 -5 -10 3 -5 2 -10 -4
-10 -5 0 -13 5 -16 10 -7 12 2 30 15 30 5 0 12 -4 15 -10z"/>
<path d="M1489 1948 c-37 -63 -114 -219 -274 -553 -26 -55 -54 -112 -62 -127
-11 -23 -11 -28 0 -28 7 0 46 68 87 153 40 83 127 259 192 390 114 229 143
313 57 165z"/>
<path d="M1600 1795 c-8 -9 -8 -15 -2 -15 12 0 26 19 19 26 -2 2 -10 -2 -17
-11z"/>
<path d="M1800 1769 c-37 -34 -41 -40 -20 -34 41 12 85 40 88 58 6 28 -20 19
-68 -24z"/>
<path d="M1490 1190 c0 -5 5 -10 10 -10 6 0 10 5 10 10 0 6 -4 10 -10 10 -5 0
-10 -4 -10 -10z"/>
<path d="M1780 1190 c0 -5 5 -10 10 -10 6 0 10 5 10 10 0 6 -4 10 -10 10 -5 0
-10 -4 -10 -10z"/>
<path d="M3280 2466 c0 -12 25 -46 34 -46 1 0 1 14 -2 30 -4 30 -32 43 -32 16z"/>
<path d="M3310 2400 c0 -5 7 -27 15 -47 12 -30 21 -38 40 -38 29 0 31 12 8 60
-12 25 -23 35 -40 35 -13 0 -23 -4 -23 -10z"/>
<path d="M3420 2176 c0 -11 -7 -27 -15 -36 -13 -14 -13 -25 -3 -76 8 -37 13
-145 13 -289 0 -199 -3 -244 -23 -337 -12 -59 -27 -119 -32 -133 -15 -40 -12
-44 19 -32 26 10 32 19 45 76 58 250 69 465 35 673 -10 61 -16 78 -32 82 -20
5 -18 33 2 29 13 -4 14 26 1 47 -8 13 -10 12 -10 -4z"/>
<path d="M3321 1183 c-26 -78 -48 -126 -108 -236 -24 -42 -43 -82 -43 -87 0
-5 -10 -20 -22 -33 -13 -13 -44 -53 -70 -89 -132 -183 -337 -361 -551 -478
-66 -36 -77 -45 -71 -63 6 -18 3 -19 -31 -14 -29 5 -63 -2 -139 -29 -126 -44
-240 -69 -378 -85 -105 -11 -108 -12 -108 -37 l0 -25 83 7 c45 3 100 11 122
18 22 6 48 10 57 9 22 -3 192 43 273 74 110 41 249 113 348 180 176 117 242
179 229 214 -3 9 1 11 17 6 16 -5 30 3 62 37 137 143 276 358 349 541 30 76
31 79 13 99 -17 19 -17 21 -1 32 16 12 15 26 -2 26 -3 0 -17 -30 -29 -67z"/>
<path d="M1715 51 c-3 -5 -1 -12 4 -16 13 -8 61 5 61 16 0 12 -57 12 -65 0z"/>
</g>
</svg>
